<svg width="605" height="605" viewBox="0 0 605 605" fill="none" xmlns="http://www.w3.org/2000/svg">
<path d="M213 178C213 136.579 246.579 103 288 103V103V428C288 469.421 254.421 503 213 503V503V178Z" fill="#191919"/>
<path d="M318 368C318 326.579 351.579 293 393 293V293V418C393 459.421 359.421 493 318 493V493V368Z" fill="#191919"/>
<circle cx="455.5" cy="340.5" r="47.5" fill="#090909"/>
<circle cx="150.5" cy="455.5" r="47.5" fill="#090909"/>
<path d="M286.571 46.0837C287.655 46.6617 293.362 48.7568 299.214 50.7075C311.93 54.9699 319.299 58.1487 324.861 61.761C330.352 65.3733 543.693 279.653 546.149 284.132C550.556 291.935 553.518 298.943 557.058 309.779C559.153 316.137 561.537 322.784 562.26 324.59L563.705 327.841L564.21 318.81C565.005 303.711 562.982 278.569 559.515 261.375C545.427 190.864 504.247 128.949 445.078 89.142C434.169 81.8452 427.522 77.944 415.457 71.8754C377.962 53.1638 342.706 45.0001 299.503 45.0001C286.21 45.0723 284.91 45.1446 286.571 46.0837Z" fill="black"/>
<circle cx="302.5" cy="302.5" r="286" stroke="black" stroke-width="33"/>
</svg>
