<svg width="881" height="917" viewBox="0 0 881 917" fill="none" xmlns="http://www.w3.org/2000/svg">
<path d="M203.651 118.959C203.651 77.5381 237.23 43.9595 278.651 43.9595V43.9595V368.959C278.651 410.381 245.072 443.959 203.651 443.959V443.959V118.959Z" fill="#191919"/>
<path d="M308.651 308.959C308.651 267.538 342.23 233.959 383.651 233.959V233.959V358.959C383.651 400.381 350.072 433.959 308.651 433.959V433.959V308.959Z" fill="#191919"/>
<circle cx="446.151" cy="281.459" r="47.5" fill="#090909"/>
<circle cx="141.151" cy="396.459" r="47.5" fill="#090909"/>
<path d="M287.177 0.382125C158.508 6.08951 47.2499 94.0844 11.5607 218.419C-8.66805 288.714 -2.16596 365.005 29.622 431.037C45.2993 463.475 65.239 491.29 91.1028 516.431C139.363 563.463 199.182 591.783 267.671 600.019C282.698 601.825 318.748 601.825 333.775 599.947C383.119 594.023 427.116 577.984 466.634 551.687L475.232 545.907L481.662 552.337C485.202 555.805 488.453 559.273 488.814 559.923C489.32 560.934 488.38 562.235 483.684 566.786C479.205 571.049 477.905 572.71 478.049 574.011C478.194 575.022 536.64 640.332 630.848 744.582C714.725 837.417 784.225 914.214 785.237 915.153L787.115 916.959L793.039 914.07C801.203 910.168 814.063 901.571 823.96 893.552C841.227 879.464 863.984 854.828 874.604 838.645C879.95 830.554 881.179 828.025 880.528 826.797C880.239 826.291 860.3 805.051 836.242 779.693C812.184 754.263 742.829 681.006 682.07 616.852C567.995 496.275 563.732 491.868 562.576 491.868C562.215 491.868 558.314 495.335 553.907 499.526C549.428 503.716 545.382 507.039 544.804 506.895C543.72 506.678 532.089 494.396 532.089 493.529C532.089 493.168 534.545 489.845 537.579 486.088C544.226 477.707 556.291 459.646 562.504 448.882C590.608 399.827 604.695 338.491 600.722 281.995C597.76 239.803 587.646 202.669 569.006 165.68C523.492 75.5896 437.592 15.1924 337.026 2.47724C328.068 1.32132 301.409 -0.195838 295.124 0.0208981C293.318 0.0931435 289.778 0.237634 287.177 0.382125ZM316.436 29.497C345.551 31.3032 371.126 36.7938 396.99 46.6192C474.004 76.0231 533.606 138.443 559.109 216.54C574.641 264.078 576.736 315.517 565.033 364.716C557.447 396.72 542.709 429.448 523.708 456.54C505.936 481.825 481.806 506.1 457.459 523.15C423.865 546.702 385.142 562.74 346.418 569.098C328.068 572.132 324.022 572.421 300.181 572.349C275.69 572.349 269.621 571.843 250.693 568.375C154.101 550.531 73.5472 480.236 42.6262 386.751C26.0097 336.468 24.2759 283.223 37.569 232.145C49.4895 186.342 72.608 145.595 106.202 111.207C137.629 79.0574 172.885 56.9503 215.076 42.8624C248.237 31.8811 282.336 27.4019 316.436 29.497Z" fill="black"/>
<path d="M285.804 40.6951C286.888 41.273 292.595 43.3682 298.447 45.3188C311.162 49.5813 318.531 52.7601 324.094 56.3723C329.585 59.9846 542.926 274.264 545.382 278.744C549.789 286.546 552.751 293.554 556.291 304.391C558.386 310.748 560.77 317.395 561.493 319.201L562.938 322.452L563.443 313.421C564.238 298.322 562.215 273.181 558.747 255.986C544.66 185.475 503.48 123.561 444.311 83.7533C433.402 76.4565 426.755 72.5553 414.69 66.4867C377.195 47.7751 341.939 39.6114 298.736 39.6114C285.443 39.6836 284.143 39.7559 285.804 40.6951Z" fill="black"/>
</svg>
